<svg width="900" height="900" fill="none" xmlns="http://www.w3.org/2000/svg"><path d="M0 333v241h55v-82h45c56 0 81-39 81-79s-25-80-81-80H0zm55 111v-63h42c21 0 29 16 29 32 0 15-8 31-29 31H55zm270-14a65 65 0 00-52-23c-46 0-78 34-78 85s32 86 78 86c20 0 40-9 52-25v21h51V411h-51v19zm-40 100c-22 0-38-18-38-38 0-21 16-38 38-38 21 0 38 17 38 38 0 20-17 38-38 38zm237-123c-16 0-38 6-50 22V322h-52v252h52v-18c12 15 34 22 50 22 41 0 80-33 80-86s-39-85-80-85zm-10 123c-20 0-38-17-38-38s18-38 38-38 37 17 37 38-17 38-37 38zm150-144c18 0 32-13 32-30s-14-30-32-30c-17 0-32 13-32 30s15 30 32 30zm26 188V411h-52v163h52zm123 4c47 0 89-34 89-86 0-51-42-85-89-85s-89 34-89 85c0 52 42 86 89 86zm0-48c-20 0-36-15-36-38 0-22 16-38 36-38s36 16 36 38c0 23-16 38-36 38z" fill="#EA7656"/></svg>
